<svg width="21" height="23" viewBox="0 0 21 23" fill="none" xmlns="http://www.w3.org/2000/svg">
<path fill-rule="evenodd" clip-rule="evenodd" d="M0.349976 5.2499C0.349976 3.64828 1.64835 2.3499 3.24998 2.3499H4.69998C5.50079 2.3499 6.14998 2.99909 6.14998 3.7999C6.14998 4.60072 5.50079 5.2499 4.69998 5.2499L3.24998 5.2499V19.7499H17.75V5.2499H16.3C15.4992 5.2499 14.85 4.60072 14.85 3.7999C14.85 2.99909 15.4992 2.3499 16.3 2.3499H17.75C19.3516 2.3499 20.65 3.64828 20.65 5.2499V19.7499C20.65 21.3515 19.3516 22.6499 17.75 22.6499H3.24998C1.64835 22.6499 0.349976 21.3515 0.349976 19.7499V5.2499Z" fill="#FA6831"/>
<path d="M1.79998 15.3999H6.14998L7.59998 18.2999H13.4L14.85 15.3999H19.2V21.1999H1.79998V15.3999Z" fill="#FA6831"/>
<path d="M6.57467 8.5746C7.14093 8.00834 8.05902 8.00834 8.62528 8.5746L9.04997 8.99929V2.3499C9.04997 1.54909 9.69916 0.899902 10.5 0.899902C11.3008 0.899902 11.95 1.54909 11.95 2.3499V8.99929L12.3747 8.5746C12.9409 8.00834 13.859 8.00834 14.4253 8.5746C14.9915 9.14086 14.9915 10.0589 14.4253 10.6252L11.5253 13.5252C11.2534 13.7971 10.8845 13.9499 10.5 13.9499C10.1154 13.9499 9.7466 13.7971 9.47467 13.5252L6.57467 10.6252C6.00841 10.0589 6.00841 9.14086 6.57467 8.5746Z" fill="#FA6831"/>
</svg>
