<svg width="28" height="28" viewBox="0 0 28 28" fill="none" xmlns="http://www.w3.org/2000/svg">
<path d="M9.19538 13.649C9.19538 11.1861 11.1926 9.18896 13.657 9.18896C16.1214 9.18896 18.1197 11.1861 18.1197 13.649C18.1197 16.1119 16.1214 18.109 13.657 18.109C11.1926 18.109 9.19538 16.1119 9.19538 13.649ZM6.78294 13.649C6.78294 17.4432 9.86044 20.5189 13.657 20.5189C17.4535 20.5189 20.531 17.4432 20.531 13.649C20.531 9.85469 17.4535 6.77903 13.657 6.77903C9.86044 6.77903 6.78294 9.85469 6.78294 13.649ZM19.1967 6.50664C19.1966 6.82417 19.2907 7.13461 19.4671 7.3987C19.6435 7.66279 19.8943 7.86867 20.1878 7.9903C20.4813 8.11193 20.8043 8.14385 21.1159 8.08203C21.4276 8.02021 21.7139 7.86742 21.9386 7.64298C22.1634 7.41854 22.3165 7.13253 22.3786 6.82112C22.4407 6.50972 22.409 6.1869 22.2876 5.89349C22.1661 5.60008 21.9603 5.34925 21.6962 5.17274C21.4321 4.99622 21.1215 4.90194 20.8038 4.90181H20.8032C20.3773 4.90201 19.9689 5.07113 19.6677 5.37203C19.3665 5.67294 19.1971 6.08101 19.1967 6.50664ZM8.24865 24.5391C6.94348 24.4797 6.23408 24.2624 5.76264 24.0789C5.13763 23.8357 4.69168 23.5461 4.22282 23.0781C3.75395 22.6102 3.46372 22.1649 3.22147 21.5403C3.0377 21.0693 2.82029 20.3602 2.76096 19.0558C2.69606 17.6455 2.6831 17.2219 2.6831 13.6491C2.6831 10.0762 2.69713 9.65379 2.76096 8.24237C2.8204 6.93798 3.03941 6.23018 3.22147 5.75785C3.46479 5.13321 3.75459 4.68753 4.22282 4.21895C4.69104 3.75036 5.13656 3.46031 5.76264 3.2182C6.23386 3.03454 6.94348 2.81726 8.24865 2.75797C9.65975 2.69311 10.0836 2.68016 13.657 2.68016C17.2303 2.68016 17.6547 2.69418 19.0669 2.75797C20.3721 2.81737 21.0803 3.03625 21.5529 3.2182C22.178 3.46031 22.6239 3.75101 23.0928 4.21895C23.5616 4.68689 23.8508 5.13321 24.0941 5.75785C24.2779 6.22879 24.4953 6.93798 24.5546 8.24237C24.6195 9.65379 24.6325 10.0762 24.6325 13.6491C24.6325 17.2219 24.6195 17.6443 24.5546 19.0558C24.4952 20.3602 24.2767 21.0691 24.0941 21.5403C23.8508 22.1649 23.561 22.6106 23.0928 23.0781C22.6245 23.5456 22.178 23.8357 21.5529 24.0789C21.0817 24.2625 20.3721 24.4798 19.0669 24.5391C17.6558 24.604 17.232 24.6169 13.657 24.6169C10.082 24.6169 9.65932 24.604 8.24865 24.5391ZM8.13781 0.351042C6.71269 0.415903 5.73886 0.64174 4.88842 0.972467C4.00766 1.314 3.26206 1.77221 2.517 2.51565C1.77193 3.25909 1.31463 4.00542 0.972889 4.88565C0.641963 5.73612 0.415991 6.70882 0.351091 8.13309C0.28512 9.55961 0.27002 10.0157 0.27002 13.649C0.27002 17.2823 0.28512 17.7383 0.351091 19.1648C0.415991 20.5892 0.641963 21.5618 0.972889 22.4123C1.31463 23.292 1.77204 24.0392 2.517 24.7823C3.26195 25.5254 4.00766 25.983 4.88842 26.3255C5.74047 26.6562 6.71269 26.882 8.13781 26.9469C9.56593 27.0117 10.0215 27.0279 13.657 27.0279C17.2925 27.0279 17.7488 27.0128 19.1762 26.9469C20.6014 26.882 21.5746 26.6562 22.4256 26.3255C23.3058 25.983 24.0519 25.5257 24.797 24.7823C25.542 24.0388 25.9984 23.292 26.3411 22.4123C26.672 21.5618 26.8991 20.5891 26.9629 19.1648C27.0278 17.7372 27.0429 17.2823 27.0429 13.649C27.0429 10.0157 27.0278 9.55961 26.9629 8.13309C26.898 6.70871 26.672 5.73558 26.3411 4.88565C25.9984 4.00595 25.5409 3.26027 24.797 2.51565C24.0531 1.77103 23.3058 1.314 22.4266 0.972467C21.5746 0.64174 20.6013 0.414833 19.1772 0.351042C17.7499 0.286181 17.2935 0.27002 13.6581 0.27002C10.0226 0.27002 9.56593 0.285111 8.13781 0.351042Z" fill="url(#paint0_linear_215_69)"/>
<defs>
<linearGradient id="paint0_linear_215_69" x1="26.5283" y1="27.0279" x2="-0.229566" y2="0.255039" gradientUnits="userSpaceOnUse">
<stop stop-color="#FBE18A"/>
<stop offset="0.21" stop-color="#FCBB45"/>
<stop offset="0.38" stop-color="#F75274"/>
<stop offset="0.52" stop-color="#D53692"/>
<stop offset="0.74" stop-color="#8F39CE"/>
<stop offset="1" stop-color="#5B4FE9"/>
</linearGradient>
</defs>
</svg>
