<svg width="21" height="23" viewBox="0 0 21 23" fill="none" xmlns="http://www.w3.org/2000/svg">
<path fill-rule="evenodd" clip-rule="evenodd" d="M15.4185 8.34167C16.9211 9.40989 18.7206 9.98062 20.5643 9.9737V6.3199C20.2018 6.3209 19.8404 6.2821 19.4864 6.2042V9.11506C17.6386 9.11833 15.8365 8.54106 14.3345 7.46476V14.9794C14.33 16.2125 13.9918 17.4214 13.3559 18.4778C12.72 19.5343 11.81 20.399 10.7225 20.9802C9.635 21.5615 8.41045 21.8375 7.17874 21.7792C5.94702 21.7209 4.75405 21.3303 3.72633 20.6489C4.67695 21.6107 5.89161 22.2688 7.2165 22.5399C8.54139 22.8109 9.91691 22.6827 11.1689 22.1715C12.4209 21.6603 13.493 20.789 14.2495 19.6681C15.006 18.5471 15.4128 17.2269 15.4185 15.8746V8.34167ZM16.7521 4.61479C15.988 3.78654 15.5191 2.7289 15.4185 1.6065V1.1315H14.3954C14.5219 1.84496 14.7971 2.52381 15.2031 3.12393C15.6091 3.72405 16.1369 4.23202 16.7521 4.61479ZM6.09521 17.7563C5.74062 17.2926 5.52331 16.7387 5.46803 16.1576C5.41275 15.5765 5.52171 14.9915 5.78251 14.4693C6.04331 13.9471 6.44547 13.5085 6.94323 13.2036C7.44099 12.8987 8.01435 12.7396 8.59806 12.7445C8.92033 12.7444 9.24071 12.7937 9.54805 12.8907V9.11506C9.18878 9.06748 8.82643 9.04712 8.46409 9.05416V11.9894C7.71574 11.7528 6.90577 11.8066 6.19528 12.1401C5.48479 12.4735 4.92583 13.0622 4.62959 13.7889C4.33335 14.5157 4.32153 15.3274 4.59648 16.0625C4.87142 16.7976 5.413 17.4023 6.11348 17.7563H6.09521Z" fill="#EE1D52"/>
<path fill-rule="evenodd" clip-rule="evenodd" d="M14.334 7.4404C15.836 8.5167 17.6381 9.09398 19.4859 9.0907V6.17984C18.4331 5.95725 17.4767 5.40984 16.7516 4.61479C16.1364 4.23202 15.6086 3.72405 15.2026 3.12393C14.7966 2.52381 14.5214 1.84496 14.3949 1.1315H11.7033V15.8746C11.7008 16.5272 11.494 17.1626 11.1119 17.6916C10.7298 18.2207 10.1917 18.6168 9.57297 18.8244C8.95428 19.0319 8.28612 19.0405 7.66229 18.849C7.03845 18.6574 6.49027 18.2753 6.09468 17.7563C5.46777 17.44 4.96571 16.9217 4.66951 16.285C4.3733 15.6483 4.30023 14.9305 4.46208 14.2472C4.62393 13.5639 5.01126 12.955 5.56158 12.5189C6.1119 12.0828 6.79311 11.8447 7.49531 11.8432C7.81749 11.8443 8.1377 11.8935 8.4453 11.9894V9.05416C7.11628 9.08607 5.8255 9.50532 4.7314 10.2605C3.6373 11.0156 2.7875 12.0738 2.28632 13.3051C1.78513 14.5364 1.65437 15.8872 1.91008 17.1918C2.1658 18.4964 2.79686 19.6979 3.7258 20.6489C4.75374 21.3352 5.94859 21.7298 7.18307 21.7907C8.41755 21.8516 9.64543 21.5765 10.7359 20.9947C11.8264 20.4129 12.7387 19.5462 13.3755 18.4869C14.0123 17.4276 14.3499 16.2154 14.3523 14.9794L14.334 7.4404Z" fill="#E3E3E3"/>
<path fill-rule="evenodd" clip-rule="evenodd" d="M19.4859 6.17984L19.4862 5.39402C18.5194 5.39813 17.5714 5.12809 16.7521 4.61479C17.4754 5.41213 18.432 5.95999 19.4859 6.17984ZM14.3954 1.1315C14.3954 0.991441 14.3526 0.845037 14.3343 0.704975V0.22998H10.6196V14.9792C10.6164 15.805 10.2857 16.5959 9.69998 17.1781C9.11429 17.7604 8.32152 18.0865 7.49565 18.0849C7.00937 18.0873 6.52959 17.9749 6.09521 17.7563C6.49079 18.2753 7.03845 18.6574 7.66229 18.849C8.28612 19.0405 8.95428 19.0319 9.57297 18.8244C10.1917 18.6168 10.7298 18.2207 11.1119 17.6916C11.494 17.1626 11.7008 16.5272 11.7033 15.8746V1.1315H14.3954ZM8.44564 9.04782V8.21354C6.91706 8.00588 5.36322 8.32208 4.03735 9.11058C2.71149 9.89909 1.69177 11.1134 1.1444 12.5556C0.597029 13.9979 0.554275 15.583 1.02311 17.0526C1.49194 18.5223 2.44489 19.7901 3.72633 20.6489C2.80441 19.6957 2.17989 18.4944 1.92939 17.1922C1.6789 15.89 1.8131 14.5431 2.3156 13.3159C2.81809 12.0887 3.66713 11.0344 4.75899 10.2819C5.85084 9.52936 7.13824 9.11112 8.46391 9.07827L8.44564 9.04782Z" fill="#69C9D0"/>
</svg>
