<svg width="29" height="21" viewBox="0 0 29 21" fill="none" xmlns="http://www.w3.org/2000/svg">
<path fill-rule="evenodd" clip-rule="evenodd" d="M25.1676 1.28374C26.3717 1.60892 27.3181 2.55774 27.638 3.76047C28.22 5.9432 28.22 10.5002 28.22 10.5002C28.22 10.5002 28.22 15.0572 27.638 17.2399C27.3136 18.4471 26.3672 19.3959 25.1676 19.7167C22.9904 20.3002 14.255 20.3002 14.255 20.3002C14.255 20.3002 5.52414 20.3002 3.34252 19.7167C2.13841 19.3915 1.19201 18.4426 0.872099 17.2399C0.290039 15.0572 0.290039 10.5002 0.290039 10.5002C0.290039 10.5002 0.290039 5.9432 0.872099 3.76047C1.19645 2.55329 2.14286 1.60447 3.34252 1.28374C5.52414 0.700195 14.255 0.700195 14.255 0.700195C14.255 0.700195 22.9904 0.700195 25.1676 1.28374ZM18.7205 10.5002L11.4647 14.7008V6.29956L18.7205 10.5002Z" fill="#FF3000"/>
</svg>
